<svg width="21" height="26" viewBox="0 0 21 26" fill="none" xmlns="http://www.w3.org/2000/svg">
<path d="M7.42871 11.4H13.2537V19.15C12.5537 20.0167 11.737 20.6083 10.8037 20.925C9.87038 21.225 8.88704 21.375 7.85371 21.375C5.67038 21.375 3.91204 20.5 2.57871 18.75C1.22871 16.9833 0.553711 14.8 0.553711 12.2C0.553711 11 0.720378 9.83333 1.05371 8.7C1.38704 7.56667 1.91204 6.53333 2.62871 5.6C3.32871 4.7 4.12871 4.04167 5.02871 3.625C5.92871 3.20833 6.94538 3 8.07871 3C8.82871 3 9.55371 3.1 10.2537 3.3C10.9704 3.48333 11.6037 3.75833 12.1537 4.125L11.5787 5.125C11.1954 4.84167 10.7287 4.6 10.1787 4.4C9.64538 4.2 9.01204 4.1 8.27871 4.1C7.57871 4.1 6.97871 4.26667 6.47871 4.6C5.99538 4.93333 5.62038 5.36667 5.35371 5.9C5.02038 6.63333 4.79538 7.50833 4.67871 8.525C4.56204 9.525 4.48704 10.75 4.45371 12.2C4.45371 12.6667 4.46204 13.1917 4.47871 13.775C4.49538 14.3417 4.52871 14.925 4.57871 15.525C4.64538 16.125 4.74538 16.7083 4.87871 17.275C5.02871 17.8417 5.22871 18.35 5.47871 18.8C5.72871 19.2333 6.04538 19.5833 6.42871 19.85C6.81204 20.1167 7.28704 20.25 7.85371 20.25C8.22038 20.25 8.58704 20.15 8.95371 19.95C9.33704 19.75 9.62871 19.4 9.82871 18.9V12.35H7.42871V11.4Z" fill="black"/>
<path d="M15.943 17.32H20.603V23.52C20.043 24.2133 19.3896 24.6867 18.643 24.94C17.8963 25.18 17.1096 25.3 16.283 25.3C14.5363 25.3 13.1296 24.6 12.063 23.2C10.983 21.7867 10.443 20.04 10.443 17.96C10.443 17 10.5763 16.0667 10.843 15.16C11.1096 14.2533 11.5296 13.4267 12.103 12.68C12.663 11.96 13.303 11.4333 14.023 11.1C14.743 10.7667 15.5563 10.6 16.463 10.6C17.063 10.6 17.643 10.68 18.203 10.84C18.7763 10.9867 19.283 11.2067 19.723 11.5L19.263 12.3C18.9563 12.0733 18.583 11.88 18.143 11.72C17.7163 11.56 17.2096 11.48 16.623 11.48C16.063 11.48 15.583 11.6133 15.183 11.88C14.7963 12.1467 14.4963 12.4933 14.283 12.92C14.0163 13.5067 13.8363 14.2067 13.743 15.02C13.6496 15.82 13.5896 16.8 13.563 17.96C13.563 18.3333 13.5696 18.7533 13.583 19.22C13.5963 19.6733 13.623 20.14 13.663 20.62C13.7163 21.1 13.7963 21.5667 13.903 22.02C14.023 22.4733 14.183 22.88 14.383 23.24C14.583 23.5867 14.8363 23.8667 15.143 24.08C15.4496 24.2933 15.8296 24.4 16.283 24.4C16.5763 24.4 16.8696 24.32 17.163 24.16C17.4696 24 17.703 23.72 17.863 23.32V18.08H15.943V17.32Z" fill="white"/>
<path d="M15.943 17.32V16.32H14.943V17.32H15.943ZM20.603 17.32H21.603V16.32H20.603V17.32ZM20.603 23.52L21.3809 24.1483L21.603 23.8734V23.52H20.603ZM18.643 24.94L18.949 25.892L18.9566 25.8896L18.9643 25.887L18.643 24.94ZM12.063 23.2L12.8584 22.594L12.8575 22.5928L12.063 23.2ZM10.843 15.16L11.8023 15.4422V15.4422L10.843 15.16ZM12.103 12.68L11.3136 12.066L11.3098 12.071L12.103 12.68ZM14.023 11.1L13.6028 10.1925L13.6028 10.1925L14.023 11.1ZM18.203 10.84L17.9282 11.8015L17.9416 11.8054L17.9551 11.8088L18.203 10.84ZM19.723 11.5L20.5899 11.9985L21.0564 11.1871L20.2777 10.6679L19.723 11.5ZM19.263 12.3L18.6686 13.1042L19.5707 13.771L20.1299 12.7985L19.263 12.3ZM18.143 11.72L17.7918 12.6564L17.8012 12.6598L18.143 11.72ZM15.183 11.88L14.6283 11.0479L14.6217 11.0523L14.6152 11.0568L15.183 11.88ZM14.283 12.92L13.3885 12.4728L13.3803 12.4893L13.3726 12.5062L14.283 12.92ZM13.743 15.02L14.7362 15.1359L14.7364 15.134L13.743 15.02ZM13.563 17.96L12.5632 17.937L12.563 17.9485V17.96H13.563ZM13.583 19.22L12.5834 19.2486L12.5834 19.2494L13.583 19.22ZM13.663 20.62L12.6664 20.703L12.6676 20.7168L12.6691 20.7304L13.663 20.62ZM13.903 22.02L12.9296 22.249L12.9327 22.2625L12.9363 22.2759L13.903 22.02ZM14.383 23.24L13.5088 23.7256L13.5127 23.7327L13.5168 23.7397L14.383 23.24ZM15.143 24.08L15.714 23.2591V23.2591L15.143 24.08ZM17.163 24.16L16.7004 23.2734L16.6922 23.2777L16.6841 23.2821L17.163 24.16ZM17.863 23.32L18.7914 23.6914L18.863 23.5126V23.32H17.863ZM17.863 18.08H18.863V17.08H17.863V18.08ZM15.943 18.08H14.943V19.08H15.943V18.08ZM15.943 18.32H20.603V16.32H15.943V18.32ZM19.603 17.32V23.52H21.603V17.32H19.603ZM19.825 22.8917C19.3681 23.4574 18.8664 23.8082 18.3217 23.993L18.9643 25.887C19.9128 25.5651 20.7179 24.9692 21.3809 24.1483L19.825 22.8917ZM18.337 23.988C17.6944 24.1945 17.0114 24.3 16.283 24.3V26.3C17.2079 26.3 18.0982 26.1655 18.949 25.892L18.337 23.988ZM16.283 24.3C14.8512 24.3 13.7376 23.7479 12.8584 22.594L11.2675 23.806C12.5216 25.452 14.2214 26.3 16.283 26.3V24.3ZM12.8575 22.5928C11.9325 21.3822 11.443 19.8592 11.443 17.96H9.44297C9.44297 20.2208 10.0335 22.1911 11.2684 23.8072L12.8575 22.5928ZM11.443 17.96C11.443 17.094 11.563 16.2557 11.8023 15.4422L9.8836 14.8778C9.58956 15.8776 9.44297 16.906 9.44297 17.96H11.443ZM11.8023 15.4422C12.0344 14.6533 12.3982 13.9375 12.8961 13.289L11.3098 12.071C10.6611 12.9158 10.1849 13.8534 9.8836 14.8778L11.8023 15.4422ZM12.8923 13.2939C13.3691 12.6809 13.8881 12.2644 14.4431 12.0075L13.6028 10.1925C12.7178 10.6023 11.9568 11.2391 11.3136 12.0661L12.8923 13.2939ZM14.4431 12.0075C15.0139 11.7432 15.6807 11.6 16.463 11.6V9.6C15.4319 9.6 14.4721 9.79011 13.6028 10.1925L14.4431 12.0075ZM16.463 11.6C16.9729 11.6 17.4603 11.6678 17.9282 11.8015L18.4777 9.87848C17.8257 9.69218 17.1531 9.6 16.463 9.6V11.6ZM17.9551 11.8088C18.4321 11.9308 18.8326 12.1083 19.1683 12.332L20.2777 10.6679C19.7333 10.3051 19.1205 10.0425 18.4508 9.8712L17.9551 11.8088ZM18.8561 11.0015L18.3961 11.8015L20.1299 12.7985L20.5899 11.9985L18.8561 11.0015ZM19.8574 11.4958C19.4582 11.2008 18.9953 10.9659 18.4847 10.7802L17.8012 12.6598C18.1706 12.7941 18.4544 12.9459 18.6686 13.1042L19.8574 11.4958ZM18.4941 10.7837C17.9281 10.5714 17.2967 10.48 16.623 10.48V12.48C17.1225 12.48 17.5045 12.5486 17.7918 12.6563L18.4941 10.7837ZM16.623 10.48C15.8989 10.48 15.2182 10.6546 14.6283 11.0479L15.7377 12.712C15.9477 12.572 16.2271 12.48 16.623 12.48V10.48ZM14.6152 11.0568C14.0875 11.4208 13.6761 11.8977 13.3885 12.4728L15.1774 13.3672C15.3165 13.089 15.5051 12.8726 15.7507 12.7032L14.6152 11.0568ZM13.3726 12.5062C13.0529 13.2095 12.8517 14.0156 12.7495 14.906L14.7364 15.134C14.8209 14.3977 14.9797 13.8038 15.1933 13.3338L13.3726 12.5062ZM12.7497 14.9041C12.6516 15.7451 12.5903 16.7582 12.5632 17.937L14.5627 17.983C14.5889 16.8418 14.6477 15.8949 14.7362 15.1359L12.7497 14.9041ZM12.563 17.96C12.563 18.3449 12.5698 18.7746 12.5834 19.2486L14.5826 19.1914C14.5694 18.7321 14.563 18.3218 14.563 17.96H12.563ZM12.5834 19.2494C12.5973 19.7217 12.625 20.2063 12.6664 20.703L14.6595 20.537C14.6209 20.0737 14.5953 19.625 14.5825 19.1906L12.5834 19.2494ZM12.6691 20.7304C12.7267 21.2489 12.8134 21.7552 12.9296 22.249L14.8764 21.791C14.7792 21.3781 14.7059 20.9511 14.6569 20.5096L12.6691 20.7304ZM12.9363 22.2759C13.0746 22.7985 13.2634 23.284 13.5088 23.7256L15.2571 22.7544C15.1025 22.476 14.9713 22.1482 14.8697 21.7641L12.9363 22.2759ZM13.5168 23.7397C13.785 24.2046 14.1359 24.5976 14.5719 24.9009L15.714 23.2591C15.5367 23.1357 15.381 22.9687 15.2492 22.7403L13.5168 23.7397ZM14.5719 24.9009C15.0792 25.2538 15.6698 25.4 16.283 25.4V23.4C15.9895 23.4 15.8201 23.3329 15.714 23.2591L14.5719 24.9009ZM16.283 25.4C16.7657 25.4 17.2223 25.2667 17.6418 25.0379L16.6841 23.2821C16.517 23.3733 16.3869 23.4 16.283 23.4V25.4ZM17.6255 25.0466C18.1923 24.7509 18.5652 24.2569 18.7914 23.6914L16.9345 22.9486C16.8407 23.1831 16.747 23.2491 16.7004 23.2734L17.6255 25.0466ZM18.863 23.32V18.08H16.863V23.32H18.863ZM17.863 17.08H15.943V19.08H17.863V17.08ZM16.943 18.08V17.32H14.943V18.08H16.943Z" fill="black"/>
</svg>
