<svg width="20" height="20" viewBox="0 0 40 40" fill="none" xmlns="http://www.w3.org/2000/svg">
<circle cx="20" cy="20" r="20" fill="#F47E60"/>
<path d="M16.4 8.19999C16.4 6.32222 17.9222 4.79999 19.8 4.79999C21.6778 4.79999 23.2 6.32222 23.2 8.19999V31.4C23.2 33.2778 21.6778 34.8 19.8 34.8C17.9222 34.8 16.4 33.2778 16.4 31.4V8.19999Z" fill="#F5E169"/>
<path d="M8.2 23.2C6.32224 23.2 4.8 21.6778 4.8 19.8C4.8 17.9222 6.32223 16.4 8.2 16.4L31.4 16.4C33.2778 16.4 34.8 17.9222 34.8 19.8C34.8 21.6778 33.2778 23.2 31.4 23.2H8.2Z" fill="#F5E169"/>
</svg>
