<svg width="16" height="14" viewBox="0 0 16 14" fill="none" xmlns="http://www.w3.org/2000/svg">
<g clip-path="url(#clip0_42_621)">
<path fill-rule="evenodd" clip-rule="evenodd" d="M0 0.85C0 0.380558 0.380558 0 0.85 0H15.15C15.6194 0 16 0.380558 16 0.85V0.85C16 1.31944 15.6194 1.7 15.15 1.7H0.85C0.380558 1.7 0 1.31944 0 0.85V0.85ZM0 7C0 6.53056 0.380558 6.15 0.85 6.15H15.15C15.6194 6.15 16 6.53056 16 7V7C16 7.46944 15.6194 7.85 15.15 7.85H0.85C0.380558 7.85 0 7.46944 0 7V7ZM0 13.15C0 12.6806 0.380558 12.3 0.85 12.3H15.15C15.6194 12.3 16 12.6806 16 13.15V13.15C16 13.6194 15.6194 14 15.15 14H0.85C0.380558 14 0 13.6194 0 13.15V13.15Z" fill="black"/>
</g>
<defs>
<clipPath id="clip0_42_621">
<rect width="16" height="14" fill="white"/>
</clipPath>
</defs>
</svg>
