<svg width="20" height="20" viewBox="0 0 40 40" fill="none" xmlns="http://www.w3.org/2000/svg">
<path d="M2.65723 40.116C3.34811 40.116 4.03899 39.8502 4.5173 39.3188L13.9239 29.9122C14.9868 28.8493 14.9868 27.2018 13.9239 26.1389C12.861 25.076 11.2135 25.076 10.1506 26.1389L0.79717 35.5987C-0.265723 36.6615 -0.265723 38.309 0.79717 39.3719C1.32862 39.8502 1.96635 40.116 2.65723 40.116Z" fill="black"/>
<path d="M37.2832 16.6684C37.2832 8.59693 30.74 2.05367 22.6684 2.05367C14.5969 2.05367 8.05364 8.59693 8.05364 16.6684C8.05364 24.74 14.5969 31.2832 22.6684 31.2832C30.74 31.2832 37.2832 24.74 37.2832 16.6684Z" fill="#E0E0E0"/>
<path d="M11.4792 28.6367C4.94245 22.0999 4.94245 11.471 11.4792 4.98731C18.016 -1.54948 28.645 -1.54948 35.1286 4.98731C41.6654 11.5241 41.6654 22.153 35.1286 28.6367C31.8868 31.8785 27.5821 33.526 23.2774 33.526C18.9726 33.526 14.7742 31.8785 11.4792 28.6367ZM14.5085 7.96342C12.1701 10.3018 10.8415 13.4373 10.8415 16.7854C10.8415 20.1335 12.117 23.2691 14.5085 25.6074C19.3978 30.4968 27.3164 30.4968 32.1525 25.6074C37.0418 20.7181 37.0418 12.7996 32.1525 7.96342C29.7079 5.51876 26.5192 4.29643 23.3305 4.29643C20.1418 4.29643 16.9531 5.51876 14.5085 7.96342Z" fill="#666766"/>
<path d="M23.1711 24.5977C24.3158 24.5977 25.2437 23.7411 25.2437 22.6845C25.2437 21.6278 24.3158 20.7713 23.1711 20.7713C22.0264 20.7713 21.0984 21.6278 21.0984 22.6845C21.0984 23.7411 22.0264 24.5977 23.1711 24.5977Z" fill="black"/>
<path d="M28.3793 12.959C27.9541 10.7801 25.7752 9.07945 23.3305 9.02631C21.8956 8.97316 20.5138 9.45146 19.451 10.3549C19.0789 10.6738 18.7601 11.0458 18.4943 11.471C18.4943 11.471 18.4412 11.5241 18.4412 11.5773C18.3349 11.7898 18.2286 12.0556 18.2286 12.3213C18.2286 13.2247 18.9195 13.9156 19.823 13.9156C20.6201 13.9156 21.2579 13.331 21.3642 12.587C21.4173 12.4807 21.5236 12.3744 21.6299 12.3213C22.1613 11.8961 22.8522 11.6835 23.5431 11.7898C24.2871 11.8961 24.978 12.4276 25.2437 13.0653C25.6689 14.1282 25.0843 15.2442 23.9682 15.6162C22.5333 16.1477 21.5767 17.4232 21.5767 18.8581V19.8678H24.7123V18.8581C24.7123 18.5923 24.8717 18.3266 25.1374 18.2203C27.4758 17.4763 28.8576 15.2442 28.3793 12.959Z" fill="black"/>
</svg>
