<svg xml:space="preserve" viewBox="0 0 100 100" y="0" x="0" xmlns="http://www.w3.org/2000/svg" id="Layer_1" version="1.1" style="height: 100%; width: 100%;" width="40px" height="40px"><g class="ldl-scale" style="transform-origin: 50% 50%; transform: rotate(0deg) scale(0.8, 0.8);"><g class="ldl-ani"><g class="ldl-layer"><g class="ldl-ani"><g><g class="ldl-layer"><g class="ldl-ani" style="transform: scale(0.91); transform-origin: 50px 50px; animation: 1.11111s linear -0.666667s infinite normal forwards running breath-d7098614-bb2f-4171-8afb-3ab3b0302365;"><path d="M17.3 87.7c1.3 0 2.6-.5 3.5-1.5l17.7-17.7c2-2 2-5.1 0-7.1s-5.1-2-7.1 0L13.8 79.2c-2 2-2 5.1 0 7.1 1 .9 2.2 1.4 3.5 1.4z" style=""></path></g></g></g></g></g><g class="ldl-layer"><g class="ldl-ani"><g><g class="ldl-layer"><g class="ldl-ani" style="transform: scale(0.91); transform-origin: 50px 50px; animation: 1.11111s linear -0.777778s infinite normal forwards running breath-d7098614-bb2f-4171-8afb-3ab3b0302365;"><circle r="27.5" fill="#e0e0e0" cy="43.8" cx="56.2" transform="rotate(-45.001 56.202 43.798)" style="fill: rgb(224, 224, 224);"></circle></g></g><g class="ldl-layer"><g class="ldl-ani" style="transform: scale(0.91); transform-origin: 50px 50px; animation: 1.11111s linear -0.888889s infinite normal forwards running breath-d7098614-bb2f-4171-8afb-3ab3b0302365;"><path fill="#666766" d="M33.9 66.1c-12.3-12.3-12.3-32.3 0-44.5 12.3-12.3 32.3-12.3 44.5 0 12.3 12.3 12.3 32.3 0 44.5-6.1 6.1-14.2 9.2-22.3 9.2s-16-3.1-22.2-9.2zm5.7-38.9c-4.4 4.4-6.9 10.3-6.9 16.6s2.4 12.2 6.9 16.6c9.2 9.2 24.1 9.2 33.2 0 9.2-9.2 9.2-24.1 0-33.2-4.6-4.6-10.6-6.9-16.6-6.9-6 0-12 2.3-16.6 6.9z" style="fill: rgb(102, 103, 102);"></path></g></g></g></g></g><g class="ldl-layer"><g class="ldl-ani"><g><g class="ldl-layer"><g class="ldl-ani"><g><g class="ldl-layer"><g class="ldl-ani" style="transform: scale(0.91); transform-origin: 50px 50px; animation: 1.11111s linear -1s infinite normal forwards running breath-d7098614-bb2f-4171-8afb-3ab3b0302365;"><ellipse ry="3.6" rx="3.9" cy="54.9" cx="55.9" style=""></ellipse></g></g></g></g></g><g class="ldl-layer"><g class="ldl-ani"><g><g class="ldl-layer"><g class="ldl-ani" style="transform: scale(0.91); transform-origin: 50px 50px; animation: 1.11111s linear -1.11111s infinite normal forwards running breath-d7098614-bb2f-4171-8afb-3ab3b0302365;"><path d="M65.7 36.6c-.8-4.1-4.9-7.3-9.5-7.4-2.7-.1-5.3.8-7.3 2.5-.7.6-1.3 1.3-1.8 2.1 0 0-.1.1-.1.2-.2.4-.4.9-.4 1.4 0 1.7 1.3 3 3 3 1.5 0 2.7-1.1 2.9-2.5.1-.2.3-.4.5-.5 1-.8 2.3-1.2 3.6-1 1.4.2 2.7 1.2 3.2 2.4.8 2-.3 4.1-2.4 4.8-2.7 1-4.5 3.4-4.5 6.1v1.9h5.9v-1.9c0-.5.3-1 .8-1.2 4.4-1.4 7-5.6 6.1-9.9z" style=""></path></g></g></g></g></g></g></g></g><metadata xmlns:d="https://loading.io/stock/"><d:name>search</d:name><d:tags>lookup,find,help,guide,documentation,search,web application</d:tags><d:license>by</d:license><d:slug>rqhwud</d:slug></metadata></g></g></svg>